<svg xmlns="http://www.w3.org/2000/svg" width="70" height="73" fill="none" viewBox="0 0 70 73"><circle cx="35" cy="35" r="35" fill="#393"/><g clip-path="url(#a)"><mask id="b" width="33" height="26" x="19" y="55" maskUnits="userSpaceOnUse" style="mask-type:alpha"><path fill="#fff" fill-rule="evenodd" d="M46.931 60.237a7.574 7.574 0 0 0-10.172-3.584 3.247 3.247 0 0 0-5.157 1.413 4.85 4.85 0 0 0-2.884 1.226 3.79 3.79 0 0 0-4.528 2.057 5.41 5.41 0 1 0 1.87 10.65c.483 4.926 4.637 8.774 9.69 8.774 4.651 0 8.54-3.262 9.507-7.623q.379.05.77.05a5.95 5.95 0 0 0 3.66-10.644 3.25 3.25 0 0 0-2.756-2.32" clip-rule="evenodd"/></mask><g mask="url(#b)"><circle cx="35" cy="35" r="35" fill="#fff"/></g></g><path fill="#fff" d="M39.49 36.25c-.792.754-1.626 1.776-2.383 3.145-.75-2.696-1.693-4.672-2.647-6.119 4.378-14.587-16.96-15.11-16.96-15.11s.623 18.231 11.767 17.813c-.023-1.22-.212-2.455-.478-3.613a26 26 0 0 0-.593-2.138c-.713-2.203-1.517-3.766-1.517-3.766a59 59 0 0 1 2.167 3.103c2.186 3.355 3.38 5.964 3.934 7.342 1.37 2.933 2.6 7.758 2.6 15.644 0 .893.727 1.616 1.619 1.616.894 0 1.62-.723 1.62-1.616 0-2.556-.124-4.83-.347-6.858.516-2.476 1.295-4.233 2.102-5.477a35 35 0 0 1 2.823-4.497c1.172-1.569 2.617-3.166 4.252-4.306 0 0-3.352 3.7-3.569 7.323 9.26.482 9.62-14.046 9.62-14.046s-16.947.577-14.01 11.56"/><defs><clipPath id="a"><path fill="#fff" d="M17.5 55.833h35.833V72.5H17.5z"/></clipPath></defs></svg>